<svg xmlns="http://www.w3.org/2000/svg" width="256" height="256" fill="none" viewBox="0 0 256 256">
<!-- SVG created with Arrow, by QuiverAI (https://quiver.ai) -->
  <path d="m247.7 20-50.62 16.07 11.86 10.9-90.01 97.74-34.05-28.39-76.98 71.54 13.91 15.64 63.17-58.51 35.48 30.37 104.6-114.4 13.21 11.86 10.02-52.72-0.64-0.09z" fill="url(#paint0_linear_983_3714)"/>
  <path d="m248.1 20.04-128.8 140.6-33.96-30.8-67.01 63.39 3.5 10.1 63.17-58.51 35.48 30.37 105.9-114.5 12.07 12.2 9.64-52.77z" fill="url(#paint1_linear_983_3714)"/>
  <path d="m144.3 20h-38.03l-48.6 111.5 27.18-25.25 20.87 17.3 38.58-103.6z" fill="url(#paint2_linear_983_3714)"/>
  <path d="m144.3 20 25.39 58.13-30.23 32.67-14.45-38.06 19.29-52.74z" fill="url(#paint3_linear_983_3714)"/>
  <path d="m224.2 73.09-29.48 32.46v129.3h29.48v-161.7z" fill="url(#paint4_linear_983_3714)"/>
  <path d="m182.2 119.6-29.92 31.49v83.7h29.92v-115.2z" fill="url(#paint5_linear_983_3714)"/>
  <path d="m139.6 165.4-18.88 20.3-10.55-8.99v58.09h29.43v-69.4z" fill="url(#paint6_linear_983_3714)"/>
  <path d="m85.27 155-17.26 16.23v63.63h29.42v-67.8l-12.16-12.06z" fill="url(#paint7_linear_983_3714)"/>
  <path d="m12.62 223.4 42.59-39.9v51.47h-47.29l4.7-11.57z" fill="url(#paint8_linear_983_3714)"/>
  <path d="m224.2 190.3 20.88 44.49h-20.88v-44.49z" fill="url(#paint9_linear_983_3714)"/>
  <defs>
    <linearGradient id="paint0_linear_983_3714" x1="128.1" x2="128.1" y1="20" y2="175.4" gradientUnits="userSpaceOnUse">
      <stop stop-color="#45D2F6" offset="0"/>
      <stop stop-color="#5551C9" offset="1"/>
    </linearGradient>
    <linearGradient id="paint1_linear_983_3714" x1="133.2" x2="133.2" y1="20.04" y2="175.2" gradientUnits="userSpaceOnUse">
      <stop stop-color="#45D2F6" offset="0"/>
      <stop stop-color="#5551C9" offset="1"/>
    </linearGradient>
    <linearGradient id="paint2_linear_983_3714" x1="101" x2="101" y1="20" y2="123.6" gradientUnits="userSpaceOnUse">
      <stop stop-color="#33C6F2" offset="0"/>
      <stop stop-color="#3793D0" offset="1"/>
    </linearGradient>
    <linearGradient id="paint3_linear_983_3714" x1="147.4" x2="147.4" y1="20" y2="110.8" gradientUnits="userSpaceOnUse">
      <stop stop-color="#4A62D0" offset="0"/>
      <stop stop-color="#5457C8" offset="1"/>
    </linearGradient>
    <linearGradient id="paint4_linear_983_3714" x1="209.5" x2="209.5" y1="73.09" y2="234.8" gradientUnits="userSpaceOnUse">
      <stop stop-color="#39C4EF" offset="0"/>
      <stop stop-color="#3378C9" offset="1"/>
    </linearGradient>
    <linearGradient id="paint5_linear_983_3714" x1="167.2" x2="167.2" y1="119.6" y2="234.8" gradientUnits="userSpaceOnUse">
      <stop stop-color="#8682F1" offset="0"/>
      <stop stop-color="#4954BF" offset="1"/>
    </linearGradient>
    <linearGradient id="paint6_linear_983_3714" x1="124.9" x2="124.9" y1="165.4" y2="234.8" gradientUnits="userSpaceOnUse">
      <stop stop-color="#8780F0" offset="0"/>
      <stop stop-color="#4954BF" offset="1"/>
    </linearGradient>
    <linearGradient id="paint7_linear_983_3714" x1="82.72" x2="82.72" y1="154.9" y2="234.8" gradientUnits="userSpaceOnUse">
      <stop stop-color="#2792D0" offset="0"/>
      <stop stop-color="#3378C9" offset="1"/>
    </linearGradient>
    <linearGradient id="paint8_linear_983_3714" x1="31.57" x2="31.57" y1="183.5" y2="235" gradientUnits="userSpaceOnUse">
      <stop stop-color="#2B87D0" offset="0"/>
      <stop stop-color="#3378C9" offset="1"/>
    </linearGradient>
    <linearGradient id="paint9_linear_983_3714" x1="234.7" x2="234.7" y1="190.3" y2="234.8" gradientUnits="userSpaceOnUse">
      <stop stop-color="#5756C9" offset="0"/>
      <stop stop-color="#5551C9" offset="1"/>
    </linearGradient>
  </defs>
</svg>